<svg width="1574" height="1995" viewBox="0 0 1574 1995" fill="none" xmlns="http://www.w3.org/2000/svg">
<path d="M130 198L129.5 246.5C129 257 118.162 266.5 115.5 272C110.458 282.419 108.555 292.185 108 298.5C106 325 109.924 338.81 112 344C118 359 127.037 371.772 147.5 373C174.5 374.62 178.921 361.468 164 355.5C159 353.5 158 350 158 342V311.5C158 299.5 169 286 170 274.5C170.589 267.725 170.5 233 167.5 218.5C163.8 200.618 143 173.5 130 163.5C116.444 152.572 93.4158 139.403 72.5 135.5C96.2781 149.127 118.5 173.75 124.5 182C128.5 187.5 129.5 195 130 198Z" fill="#AC763D"/>
<path d="M58 146C71.4392 161.412 84 178.5 85 197.5C85 217 73.5 229 65.1068 239.5C61.9537 242.937 58.8313 247.657 54.5 251C65.6685 261.409 77.5 257.263 88 254.5C97.5 252 115.5 236 114 207.5C112.5 191.5 110.5 179.5 101.5 169C95.7719 162.317 75.3762 148.389 58 146Z" fill="#AC763D"/>
<path d="M41 355.5C33.5 353 26.5 334.5 26.5 327C26.5 323.893 27.2117 315.114 33.5 313.5V298.5C20.403 304.185 13.2195 307.007 2.5 306.5C3.7886 294.723 6.38536 287.792 11 282C13.5 278.862 25.5711 266.804 41.5 262.5C57.5 266.5 62 271.5 72 282C77.4439 288.548 80.5373 293.923 80.5 304.5C67.9653 305.324 63.3067 304.461 50.5 298.5L50.5 314C55.9424 316.918 56.5071 323.45 56 327C55 334 49.5 352.5 41 355.5Z" fill="#AC763D"/>
<path d="M78 358C61.5 355.5 45.3019 378.629 46 394.5C46.3735 402.992 48.5 411.5 52 417.5C55.2402 423.055 71.5 440 90.5 440C109.5 440 127.5 430 130 407C130 386 109.081 376.479 108 379.5C106.919 382.521 121.5 394.5 107 401C99.5 403 97 403 88 402C82.264 400.902 74.4073 394.5 73.5 389C71.3254 375.817 72.5469 364.089 78 358Z" fill="#AC763D"/>
<path d="M41 433.5C29.5186 448.225 21 460 19 486.5C18.7419 506.977 23.6573 519.229 41 542.5C60.046 519.406 63 505.5 63 486.5C61.5 461 54.6532 448.311 41 433.5Z" fill="#AC763D"/>
<path d="M130 198L129.5 246.5C129 257 118.162 266.5 115.5 272C110.458 282.419 108.555 292.185 108 298.5C106 325 109.924 338.81 112 344C118 359 127.037 371.772 147.5 373C174.5 374.62 178.921 361.468 164 355.5C159 353.5 158 350 158 342V311.5C158 299.5 169 286 170 274.5C170.589 267.725 170.5 233 167.5 218.5C163.8 200.618 143 173.5 130 163.5C116.444 152.572 93.4158 139.403 72.5 135.5C96.2781 149.127 118.5 173.75 124.5 182C128.5 187.5 129.5 195 130 198Z" stroke="#AC763D" stroke-linejoin="round"/>
<path d="M58 146C71.4392 161.412 84 178.5 85 197.5C85 217 73.5 229 65.1068 239.5C61.9537 242.937 58.8313 247.657 54.5 251C65.6685 261.409 77.5 257.263 88 254.5C97.5 252 115.5 236 114 207.5C112.5 191.5 110.5 179.5 101.5 169C95.7719 162.317 75.3762 148.389 58 146Z" stroke="#AC763D" stroke-linejoin="round"/>
<path d="M41 355.5C33.5 353 26.5 334.5 26.5 327C26.5 323.893 27.2117 315.114 33.5 313.5V298.5C20.403 304.185 13.2195 307.007 2.5 306.5C3.7886 294.723 6.38536 287.792 11 282C13.5 278.862 25.5711 266.804 41.5 262.5C57.5 266.5 62 271.5 72 282C77.4439 288.548 80.5373 293.923 80.5 304.5C67.9653 305.324 63.3067 304.461 50.5 298.5L50.5 314C55.9424 316.918 56.5071 323.45 56 327C55 334 49.5 352.5 41 355.5Z" stroke="#AC763D" stroke-linejoin="round"/>
<path d="M78 358C61.5 355.5 45.3019 378.629 46 394.5C46.3735 402.992 48.5 411.5 52 417.5C55.2402 423.055 71.5 440 90.5 440C109.5 440 127.5 430 130 407C130 386 109.081 376.479 108 379.5C106.919 382.521 121.5 394.5 107 401C99.5 403 97 403 88 402C82.264 400.902 74.4073 394.5 73.5 389C71.3254 375.817 72.5469 364.089 78 358Z" stroke="#AC763D" stroke-linejoin="round"/>
<path d="M41 433.5C29.5186 448.225 21 460 19 486.5C18.7419 506.977 23.6573 519.229 41 542.5C60.046 519.406 63 505.5 63 486.5C61.5 461 54.6532 448.311 41 433.5Z" stroke="#AC763D" stroke-linejoin="round"/>
<path d="M261.505 264.036C254.367 267.434 236.496 258.954 231.297 253.549C229.143 251.31 223.57 244.49 226.983 238.967L216.584 228.157C211.086 241.333 207.865 248.347 199.789 255.413C192.553 246.032 189.619 239.237 188.93 231.864C188.556 227.869 188.896 210.811 197.392 196.666C211.696 188.456 218.405 188.94 232.891 189.575C241.354 190.519 247.31 192.249 254.616 199.897C246.153 209.181 242.198 211.789 228.836 216.371L239.581 227.542C245.526 225.872 250.462 230.188 252.557 233.098C256.689 238.836 265.551 255.981 261.505 264.036Z" fill="#AC763D" stroke="#AC763D" stroke-linejoin="round"/>
<path d="M196.5 131.5L245 131C255.5 130.5 265 119.662 270.5 117C280.919 111.958 290.685 110.055 297 109.5C323.5 107.5 337.31 111.424 342.5 113.5C357.5 119.5 370.272 128.537 371.5 149C373.12 176 359.968 180.421 354 165.5C352 160.5 348.5 159.5 340.5 159.5H310C298 159.5 284.5 170.5 273 171.5C266.225 172.089 231.5 172 217 169C199.118 165.3 172 144.5 162 131.5C151.072 117.944 137.903 94.9158 134 74C147.627 97.7781 172.25 120 180.5 126C186 130 193.5 131 196.5 131.5Z" fill="#AC763D"/>
<path d="M144.5 59.5C159.912 72.9392 177 85.5 196 86.5C215.5 86.5 227.5 75 238 66.6068C241.437 63.4537 246.157 60.3313 249.5 56C259.909 67.1685 255.763 79 253 89.5C250.5 99 234.5 117 206 115.5C190 114 178 112 167.5 103C160.817 97.2719 146.889 76.8762 144.5 59.5Z" fill="#AC763D"/>
<path d="M354 42.5C351.5 35 333 28 325.5 28C322.393 28 313.614 28.7117 312 35H297C302.685 21.903 305.507 14.7195 305 4C293.223 5.2886 286.292 7.88536 280.5 12.5C277.362 15 265.304 27.0711 261 43C265 59 270 63.5 280.5 73.5C287.048 78.9439 292.423 82.0373 303 82C303.824 69.4653 302.961 64.8067 297 52L312.5 52C315.418 57.4424 321.95 58.0071 325.5 57.5C332.5 56.5 351 51 354 42.5Z" fill="#AC763D"/>
<path d="M356.5 79.5C354 63 377.129 46.8019 393 47.5C401.492 47.8735 410 50 416 53.5C421.555 56.7402 438.5 73 438.5 92C438.5 111 428.5 129 405.5 131.5C384.5 131.5 374.979 110.581 378 109.5C381.021 108.419 393 123 399.5 108.5C401.5 101 401.5 98.5 400.5 89.5C399.402 83.764 393 75.9073 387.5 75C374.317 72.8254 362.589 74.0469 356.5 79.5Z" fill="#AC763D"/>
<path d="M432 42.5C446.725 31.0186 458.5 22.5 485 20.5C505.477 20.2419 517.729 25.1573 541 42.5C517.906 61.546 504 64.5 485 64.5C459.5 63 446.811 56.1532 432 42.5Z" fill="#AC763D"/>
<path d="M196.5 131.5L245 131C255.5 130.5 265 119.662 270.5 117C280.919 111.958 290.685 110.055 297 109.5C323.5 107.5 337.31 111.424 342.5 113.5C357.5 119.5 370.272 128.537 371.5 149C373.12 176 359.968 180.421 354 165.5C352 160.5 348.5 159.5 340.5 159.5H310C298 159.5 284.5 170.5 273 171.5C266.225 172.089 231.5 172 217 169C199.118 165.3 172 144.5 162 131.5C151.072 117.944 137.903 94.9158 134 74C147.627 97.7781 172.25 120 180.5 126C186 130 193.5 131 196.5 131.5Z" stroke="#AC763D" stroke-linejoin="round"/>
<path d="M144.5 59.5C159.912 72.9392 177 85.5 196 86.5C215.5 86.5 227.5 75 238 66.6068C241.437 63.4537 246.157 60.3313 249.5 56C259.909 67.1685 255.763 79 253 89.5C250.5 99 234.5 117 206 115.5C190 114 178 112 167.5 103C160.817 97.2719 146.889 76.8762 144.5 59.5Z" stroke="#AC763D" stroke-linejoin="round"/>
<path d="M354 42.5C351.5 35 333 28 325.5 28C322.393 28 313.614 28.7117 312 35H297C302.685 21.903 305.507 14.7195 305 4C293.223 5.2886 286.292 7.88536 280.5 12.5C277.362 15 265.304 27.0711 261 43C265 59 270 63.5 280.5 73.5C287.048 78.9439 292.423 82.0373 303 82C303.824 69.4653 302.961 64.8067 297 52L312.5 52C315.418 57.4424 321.95 58.0071 325.5 57.5C332.5 56.5 351 51 354 42.5Z" stroke="#AC763D" stroke-linejoin="round"/>
<path d="M356.5 79.5C354 63 377.129 46.8019 393 47.5C401.492 47.8735 410 50 416 53.5C421.555 56.7402 438.5 73 438.5 92C438.5 111 428.5 129 405.5 131.5C384.5 131.5 374.979 110.581 378 109.5C381.021 108.419 393 123 399.5 108.5C401.5 101 401.5 98.5 400.5 89.5C399.402 83.764 393 75.9073 387.5 75C374.317 72.8254 362.589 74.0469 356.5 79.5Z" stroke="#AC763D" stroke-linejoin="round"/>
<path d="M432 42.5C446.725 31.0186 458.5 22.5 485 20.5C505.477 20.2419 517.729 25.1573 541 42.5C517.906 61.546 504 64.5 485 64.5C459.5 63 446.811 56.1532 432 42.5Z" stroke="#AC763D" stroke-linejoin="round"/>
<circle cx="42.5" cy="42.5" r="42.5" fill="#AC763D"/>
<circle cx="119" cy="43" r="15" fill="#AC763D"/>
<circle cx="40" cy="121" r="15" fill="#AC763D"/>
<path d="M76.5 79C77.5 100.5 86.5 115.423 92.5 120.5C105.5 131.5 115.5 131.5 131.5 133C128.366 112.145 127.395 103.717 117 93.5C103.542 81.3235 91.5 79 76.5 79Z" fill="#AC763D"/>
<path d="M145.5 44C160.659 29.323 174 24.5 190 24.5C205 24.5 222.659 28.5837 237 44C222.5 55.5 210.5 60.5 192.5 60.5C174.5 60.5 160.5 56 145.5 44Z" fill="#AC763D"/>
<path d="M41.5 147C28.8504 164.618 23.107 174.534 22.5 192.5C22.9913 211.593 27.1619 222.138 41.5 240.5C54.4003 224.49 62.5 211 61.5 192.5C60.5 174 54.1692 163.75 41.5 147Z" fill="#AC763D"/>
<path d="M76.5 79C77.5 100.5 86.5 115.423 92.5 120.5C105.5 131.5 115.5 131.5 131.5 133C128.366 112.145 127.395 103.717 117 93.5C103.542 81.3235 91.5 79 76.5 79Z" stroke="#AC763D"/>
<path d="M145.5 44C160.659 29.323 174 24.5 190 24.5C205 24.5 222.659 28.5837 237 44C222.5 55.5 210.5 60.5 192.5 60.5C174.5 60.5 160.5 56 145.5 44Z" stroke="#AC763D"/>
<path d="M41.5 147C28.8504 164.618 23.107 174.534 22.5 192.5C22.9913 211.593 27.1619 222.138 41.5 240.5C54.4003 224.49 62.5 211 61.5 192.5C60.5 174 54.1692 163.75 41.5 147Z" stroke="#AC763D"/>
<path d="M1444 198L1444.5 246.5C1445 257 1455.84 266.5 1458.5 272C1463.54 282.419 1465.45 292.185 1466 298.5C1468 325 1464.08 338.81 1462 344C1456 359 1446.96 371.772 1426.5 373C1399.5 374.62 1395.08 361.468 1410 355.5C1415 353.5 1416 350 1416 342V311.5C1416 299.5 1405 286 1404 274.5C1403.41 267.725 1403.5 233 1406.5 218.5C1410.2 200.618 1431 173.5 1444 163.5C1457.56 152.572 1480.58 139.403 1501.5 135.5C1477.72 149.127 1455.5 173.75 1449.5 182C1445.5 187.5 1444.5 195 1444 198Z" fill="#AC763D"/>
<path d="M1516 146C1502.56 161.412 1490 178.5 1489 197.5C1489 217 1500.5 229 1508.89 239.5C1512.05 242.937 1515.17 247.657 1519.5 251C1508.33 261.409 1496.5 257.263 1486 254.5C1476.5 252 1458.5 236 1460 207.5C1461.5 191.5 1463.5 179.5 1472.5 169C1478.23 162.317 1498.62 148.389 1516 146Z" fill="#AC763D"/>
<path d="M1533 355.5C1540.5 353 1547.5 334.5 1547.5 327C1547.5 323.893 1546.79 315.114 1540.5 313.5V298.5C1553.6 304.185 1560.78 307.007 1571.5 306.5C1570.21 294.723 1567.61 287.792 1563 282C1560.5 278.862 1548.43 266.804 1532.5 262.5C1516.5 266.5 1512 271.5 1502 282C1496.56 288.548 1493.46 293.923 1493.5 304.5C1506.03 305.324 1510.69 304.461 1523.5 298.5L1523.5 314C1518.06 316.918 1517.49 323.45 1518 327C1519 334 1524.5 352.5 1533 355.5Z" fill="#AC763D"/>
<path d="M1496 358C1512.5 355.5 1528.7 378.629 1528 394.5C1527.63 402.992 1525.5 411.5 1522 417.5C1518.76 423.055 1502.5 440 1483.5 440C1464.5 440 1446.5 430 1444 407C1444 386 1464.92 376.479 1466 379.5C1467.08 382.521 1452.5 394.5 1467 401C1474.5 403 1477 403 1486 402C1491.74 400.902 1499.59 394.5 1500.5 389C1502.67 375.817 1501.45 364.089 1496 358Z" fill="#AC763D"/>
<path d="M1533 433.5C1544.48 448.225 1553 460 1555 486.5C1555.26 506.977 1550.34 519.229 1533 542.5C1513.95 519.406 1511 505.5 1511 486.5C1512.5 461 1519.35 448.311 1533 433.5Z" fill="#AC763D"/>
<path d="M1444 198L1444.5 246.5C1445 257 1455.84 266.5 1458.5 272C1463.54 282.419 1465.45 292.185 1466 298.5C1468 325 1464.08 338.81 1462 344C1456 359 1446.96 371.772 1426.5 373C1399.5 374.62 1395.08 361.468 1410 355.5C1415 353.5 1416 350 1416 342V311.5C1416 299.5 1405 286 1404 274.5C1403.41 267.725 1403.5 233 1406.5 218.5C1410.2 200.618 1431 173.5 1444 163.5C1457.56 152.572 1480.58 139.403 1501.5 135.5C1477.72 149.127 1455.5 173.75 1449.5 182C1445.5 187.5 1444.5 195 1444 198Z" stroke="#AC763D" stroke-linejoin="round"/>
<path d="M1516 146C1502.56 161.412 1490 178.5 1489 197.5C1489 217 1500.5 229 1508.89 239.5C1512.05 242.937 1515.17 247.657 1519.5 251C1508.33 261.409 1496.5 257.263 1486 254.5C1476.5 252 1458.5 236 1460 207.5C1461.5 191.5 1463.5 179.5 1472.5 169C1478.23 162.317 1498.62 148.389 1516 146Z" stroke="#AC763D" stroke-linejoin="round"/>
<path d="M1533 355.5C1540.5 353 1547.5 334.5 1547.5 327C1547.5 323.893 1546.79 315.114 1540.5 313.5V298.5C1553.6 304.185 1560.78 307.007 1571.5 306.5C1570.21 294.723 1567.61 287.792 1563 282C1560.5 278.862 1548.43 266.804 1532.5 262.5C1516.5 266.5 1512 271.5 1502 282C1496.56 288.548 1493.46 293.923 1493.5 304.5C1506.03 305.324 1510.69 304.461 1523.5 298.5L1523.5 314C1518.06 316.918 1517.49 323.45 1518 327C1519 334 1524.5 352.5 1533 355.5Z" stroke="#AC763D" stroke-linejoin="round"/>
<path d="M1496 358C1512.5 355.5 1528.7 378.629 1528 394.5C1527.63 402.992 1525.5 411.5 1522 417.5C1518.76 423.055 1502.5 440 1483.5 440C1464.5 440 1446.5 430 1444 407C1444 386 1464.92 376.479 1466 379.5C1467.08 382.521 1452.5 394.5 1467 401C1474.5 403 1477 403 1486 402C1491.74 400.902 1499.59 394.5 1500.5 389C1502.67 375.817 1501.45 364.089 1496 358Z" stroke="#AC763D" stroke-linejoin="round"/>
<path d="M1533 433.5C1544.48 448.225 1553 460 1555 486.5C1555.26 506.977 1550.34 519.229 1533 542.5C1513.95 519.406 1511 505.5 1511 486.5C1512.5 461 1519.35 448.311 1533 433.5Z" stroke="#AC763D" stroke-linejoin="round"/>
<path d="M1312.5 264.036C1319.63 267.434 1337.5 258.954 1342.7 253.549C1344.86 251.31 1350.43 244.49 1347.02 238.967L1357.42 228.157C1362.91 241.333 1366.13 248.347 1374.21 255.413C1381.45 246.032 1384.38 239.237 1385.07 231.864C1385.44 227.869 1385.1 210.811 1376.61 196.666C1362.3 188.456 1355.59 188.94 1341.11 189.575C1332.65 190.519 1326.69 192.249 1319.38 199.897C1327.85 209.181 1331.8 211.789 1345.16 216.371L1334.42 227.542C1328.47 225.872 1323.54 230.188 1321.44 233.098C1317.31 238.836 1308.45 255.981 1312.5 264.036Z" fill="#AC763D" stroke="#AC763D" stroke-linejoin="round"/>
<path d="M1377.5 131.5L1329 131C1318.5 130.5 1309 119.662 1303.5 117C1293.08 111.958 1283.32 110.055 1277 109.5C1250.5 107.5 1236.69 111.424 1231.5 113.5C1216.5 119.5 1203.73 128.537 1202.5 149C1200.88 176 1214.03 180.421 1220 165.5C1222 160.5 1225.5 159.5 1233.5 159.5H1264C1276 159.5 1289.5 170.5 1301 171.5C1307.78 172.089 1342.5 172 1357 169C1374.88 165.3 1402 144.5 1412 131.5C1422.93 117.944 1436.1 94.9158 1440 74C1426.37 97.7781 1401.75 120 1393.5 126C1388 130 1380.5 131 1377.5 131.5Z" fill="#AC763D"/>
<path d="M1429.5 59.5C1414.09 72.9392 1397 85.5 1378 86.5C1358.5 86.5 1346.5 75 1336 66.6068C1332.56 63.4537 1327.84 60.3313 1324.5 56C1314.09 67.1685 1318.24 79 1321 89.5C1323.5 99 1339.5 117 1368 115.5C1384 114 1396 112 1406.5 103C1413.18 97.2719 1427.11 76.8762 1429.5 59.5Z" fill="#AC763D"/>
<path d="M1220 42.5C1222.5 35 1241 28 1248.5 28C1251.61 28 1260.39 28.7117 1262 35H1277C1271.32 21.903 1268.49 14.7195 1269 4C1280.78 5.2886 1287.71 7.88536 1293.5 12.5C1296.64 15 1308.7 27.0711 1313 43C1309 59 1304 63.5 1293.5 73.5C1286.95 78.9439 1281.58 82.0373 1271 82C1270.18 69.4653 1271.04 64.8067 1277 52L1261.5 52C1258.58 57.4424 1252.05 58.0071 1248.5 57.5C1241.5 56.5 1223 51 1220 42.5Z" fill="#AC763D"/>
<path d="M1217.5 79.5C1220 63 1196.87 46.8019 1181 47.5C1172.51 47.8735 1164 50 1158 53.5C1152.45 56.7402 1135.5 73 1135.5 92C1135.5 111 1145.5 129 1168.5 131.5C1189.5 131.5 1199.02 110.581 1196 109.5C1192.98 108.419 1181 123 1174.5 108.5C1172.5 101 1172.5 98.5 1173.5 89.5C1174.6 83.764 1181 75.9073 1186.5 75C1199.68 72.8254 1211.41 74.0469 1217.5 79.5Z" fill="#AC763D"/>
<path d="M1142 42.5C1127.28 31.0186 1115.5 22.5 1089 20.5C1068.52 20.2419 1056.27 25.1573 1033 42.5C1056.09 61.546 1070 64.5 1089 64.5C1114.5 63 1127.19 56.1532 1142 42.5Z" fill="#AC763D"/>
<path d="M1377.5 131.5L1329 131C1318.5 130.5 1309 119.662 1303.5 117C1293.08 111.958 1283.32 110.055 1277 109.5C1250.5 107.5 1236.69 111.424 1231.5 113.5C1216.5 119.5 1203.73 128.537 1202.5 149C1200.88 176 1214.03 180.421 1220 165.5C1222 160.5 1225.5 159.5 1233.5 159.5H1264C1276 159.5 1289.5 170.5 1301 171.5C1307.78 172.089 1342.5 172 1357 169C1374.88 165.3 1402 144.5 1412 131.5C1422.93 117.944 1436.1 94.9158 1440 74C1426.37 97.7781 1401.75 120 1393.5 126C1388 130 1380.5 131 1377.5 131.5Z" stroke="#AC763D" stroke-linejoin="round"/>
<path d="M1429.5 59.5C1414.09 72.9392 1397 85.5 1378 86.5C1358.5 86.5 1346.5 75 1336 66.6068C1332.56 63.4537 1327.84 60.3313 1324.5 56C1314.09 67.1685 1318.24 79 1321 89.5C1323.5 99 1339.5 117 1368 115.5C1384 114 1396 112 1406.5 103C1413.18 97.2719 1427.11 76.8762 1429.5 59.5Z" stroke="#AC763D" stroke-linejoin="round"/>
<path d="M1220 42.5C1222.5 35 1241 28 1248.5 28C1251.61 28 1260.39 28.7117 1262 35H1277C1271.32 21.903 1268.49 14.7195 1269 4C1280.78 5.2886 1287.71 7.88536 1293.5 12.5C1296.64 15 1308.7 27.0711 1313 43C1309 59 1304 63.5 1293.5 73.5C1286.95 78.9439 1281.58 82.0373 1271 82C1270.18 69.4653 1271.04 64.8067 1277 52L1261.5 52C1258.58 57.4424 1252.05 58.0071 1248.5 57.5C1241.5 56.5 1223 51 1220 42.5Z" stroke="#AC763D" stroke-linejoin="round"/>
<path d="M1217.5 79.5C1220 63 1196.87 46.8019 1181 47.5C1172.51 47.8735 1164 50 1158 53.5C1152.45 56.7402 1135.5 73 1135.5 92C1135.5 111 1145.5 129 1168.5 131.5C1189.5 131.5 1199.02 110.581 1196 109.5C1192.98 108.419 1181 123 1174.5 108.5C1172.5 101 1172.5 98.5 1173.5 89.5C1174.6 83.764 1181 75.9073 1186.5 75C1199.68 72.8254 1211.41 74.0469 1217.5 79.5Z" stroke="#AC763D" stroke-linejoin="round"/>
<path d="M1142 42.5C1127.28 31.0186 1115.5 22.5 1089 20.5C1068.52 20.2419 1056.27 25.1573 1033 42.5C1056.09 61.546 1070 64.5 1089 64.5C1114.5 63 1127.19 56.1532 1142 42.5Z" stroke="#AC763D" stroke-linejoin="round"/>
<circle cx="42.5" cy="42.5" r="42.5" transform="matrix(-1 0 0 1 1574 0)" fill="#AC763D"/>
<circle cx="15" cy="15" r="15" transform="matrix(-1 0 0 1 1470 28)" fill="#AC763D"/>
<circle cx="15" cy="15" r="15" transform="matrix(-1 0 0 1 1549 106)" fill="#AC763D"/>
<path d="M1497.5 79C1496.5 100.5 1487.5 115.423 1481.5 120.5C1468.5 131.5 1458.5 131.5 1442.5 133C1445.63 112.145 1446.6 103.717 1457 93.5C1470.46 81.3235 1482.5 79 1497.5 79Z" fill="#AC763D"/>
<path d="M1428.5 44C1413.34 29.323 1400 24.5 1384 24.5C1369 24.5 1351.34 28.5837 1337 44C1351.5 55.5 1363.5 60.5 1381.5 60.5C1399.5 60.5 1413.5 56 1428.5 44Z" fill="#AC763D"/>
<path d="M1532.5 147C1545.15 164.618 1550.89 174.534 1551.5 192.5C1551.01 211.593 1546.84 222.138 1532.5 240.5C1519.6 224.49 1511.5 211 1512.5 192.5C1513.5 174 1519.83 163.75 1532.5 147Z" fill="#AC763D"/>
<path d="M1497.5 79C1496.5 100.5 1487.5 115.423 1481.5 120.5C1468.5 131.5 1458.5 131.5 1442.5 133C1445.63 112.145 1446.6 103.717 1457 93.5C1470.46 81.3235 1482.5 79 1497.5 79Z" stroke="#AC763D"/>
<path d="M1428.5 44C1413.34 29.323 1400 24.5 1384 24.5C1369 24.5 1351.34 28.5837 1337 44C1351.5 55.5 1363.5 60.5 1381.5 60.5C1399.5 60.5 1413.5 56 1428.5 44Z" stroke="#AC763D"/>
<path d="M1532.5 147C1545.15 164.618 1550.89 174.534 1551.5 192.5C1551.01 211.593 1546.84 222.138 1532.5 240.5C1519.6 224.49 1511.5 211 1512.5 192.5C1513.5 174 1519.83 163.75 1532.5 147Z" stroke="#AC763D"/>
<path d="M48.9995 1968C53.4995 1980.5 64.4995 1993 77.4995 1994.5C71.5006 1980 71.5 1973 75.5 1959.5C77.4995 1953.5 84.4984 1948 93.4995 1948C100.5 1948 112.499 1951 112.499 1959.5C112.499 1966 107.408 1967.97 103.499 1970.5C110.499 1972 122.597 1967 126.5 1961.5C128.485 1958.7 131.5 1945 127.999 1936.5C122.634 1923.47 107.499 1910.5 92.4995 1910.5C73.4995 1910.5 57 1919.01 51.4995 1934.5C46.6177 1948.25 46.8398 1962 48.9995 1968Z" fill="#AC763D"/>
<path d="M78.4984 453.501V1897.5C78.4984 1904.5 84.4984 1905 84.4984 1897.5V453.501C84.4984 446.5 78.4984 446.5 78.4984 453.501Z" fill="#AC763D"/>
<path d="M48.9995 1968C53.4995 1980.5 64.4995 1993 77.4995 1994.5C71.5006 1980 71.5 1973 75.5 1959.5C77.4995 1953.5 84.4984 1948 93.4995 1948C100.5 1948 112.499 1951 112.499 1959.5C112.499 1966 107.408 1967.97 103.499 1970.5C110.499 1972 122.597 1967 126.5 1961.5C128.485 1958.7 131.5 1945 127.999 1936.5C122.634 1923.47 107.499 1910.5 92.4995 1910.5C73.4995 1910.5 57 1919.01 51.4995 1934.5C46.6177 1948.25 46.8398 1962 48.9995 1968Z" stroke="#AC763D" stroke-linejoin="round"/>
<path d="M78.4984 453.501V1897.5C78.4984 1904.5 84.4984 1905 84.4984 1897.5V453.501C84.4984 446.5 78.4984 446.5 78.4984 453.501Z" stroke="#AC763D" stroke-linejoin="round"/>
<path d="M32.5 1762C23.5 1766 23 1781 30 1787C38 1793.86 48 1791.96 53 1787C58 1782.04 60 1768 50 1762L50.5 579C54 577.5 56.4117 572 56 565C55.5 556.5 50.5 551 41 551C31.5 551 26.5 557.5 26.5 565C26.5 572.5 27 574 32.5 579V1762Z" fill="#AC763D"/>
<path d="M41.5 1805.5C27.4815 1827 19 1837 19 1860.5C19 1883.5 23 1897.5 41.5 1918L41.7835 1917.69C56.9235 1901.06 64 1893.29 64 1860C63 1836 55.5 1827 41.5 1805.5Z" fill="#AC763D"/>
<path d="M41.5 1918C23 1897.5 19 1883.5 19 1860.5C19 1837 27.4815 1827 41.5 1805.5C55.5 1827 63 1836 64 1860C64 1893.29 56.9235 1901.06 41.7835 1917.69M41.5 1918L41.7835 1917.69M41.5 1918C41.5948 1917.9 41.6893 1917.79 41.7835 1917.69M32.5 1762C23.5 1766 23 1781 30 1787C38 1793.86 48 1791.96 53 1787C58 1782.04 60 1768 50 1762L50.5 579C54 577.5 56.4117 572 56 565C55.5 556.5 50.5 551 41 551C31.5 551 26.5 557.5 26.5 565C26.5 572.5 27 574 32.5 579V1762Z" stroke="#AC763D" stroke-linejoin="round"/>
<path d="M1520.61 1967.75C1516.11 1980.25 1505.11 1992.75 1492.11 1994.25C1498.11 1979.75 1498.11 1972.75 1494.11 1959.25C1492.11 1953.25 1485.11 1947.75 1476.11 1947.75C1469.11 1947.75 1457.11 1950.75 1457.11 1959.25C1457.11 1965.75 1462.2 1967.72 1466.11 1970.25C1459.11 1971.75 1447.01 1966.75 1443.11 1961.25C1441.12 1958.45 1438.11 1944.75 1441.61 1936.25C1446.97 1923.22 1462.11 1910.25 1477.11 1910.25C1496.11 1910.25 1512.61 1918.76 1518.11 1934.25C1522.99 1948 1522.77 1961.75 1520.61 1967.75Z" fill="#AC763D"/>
<path d="M1491.11 453.251V1897.25C1491.11 1904.25 1485.11 1904.75 1485.11 1897.25V453.251C1485.11 446.25 1491.11 446.25 1491.11 453.251Z" fill="#AC763D"/>
<path d="M1520.61 1967.75C1516.11 1980.25 1505.11 1992.75 1492.11 1994.25C1498.11 1979.75 1498.11 1972.75 1494.11 1959.25C1492.11 1953.25 1485.11 1947.75 1476.11 1947.75C1469.11 1947.75 1457.11 1950.75 1457.11 1959.25C1457.11 1965.75 1462.2 1967.72 1466.11 1970.25C1459.11 1971.75 1447.01 1966.75 1443.11 1961.25C1441.12 1958.45 1438.11 1944.75 1441.61 1936.25C1446.97 1923.22 1462.11 1910.25 1477.11 1910.25C1496.11 1910.25 1512.61 1918.76 1518.11 1934.25C1522.99 1948 1522.77 1961.75 1520.61 1967.75Z" stroke="#AC763D" stroke-linejoin="round"/>
<path d="M1491.11 453.251V1897.25C1491.11 1904.25 1485.11 1904.75 1485.11 1897.25V453.251C1485.11 446.25 1491.11 446.25 1491.11 453.251Z" stroke="#AC763D" stroke-linejoin="round"/>
<path d="M1537.11 1761.75C1546.11 1765.75 1546.61 1780.75 1539.61 1786.75C1531.61 1793.61 1521.61 1791.71 1516.61 1786.75C1511.61 1781.79 1509.61 1767.75 1519.61 1761.75L1519.11 578.75C1515.61 577.25 1513.2 571.75 1513.61 564.75C1514.11 556.25 1519.11 550.75 1528.61 550.75C1538.11 550.75 1543.11 557.25 1543.11 564.75C1543.11 572.25 1542.61 573.75 1537.11 578.75V1761.75Z" fill="#AC763D"/>
<path d="M1528.11 1805.25C1542.13 1826.75 1550.61 1836.75 1550.61 1860.25C1550.61 1883.25 1546.61 1897.25 1528.11 1917.75L1527.82 1917.44C1512.68 1900.81 1505.61 1893.04 1505.61 1859.75C1506.61 1835.75 1514.11 1826.75 1528.11 1805.25Z" fill="#AC763D"/>
<path d="M1528.11 1917.75C1546.61 1897.25 1550.61 1883.25 1550.61 1860.25C1550.61 1836.75 1542.13 1826.75 1528.11 1805.25C1514.11 1826.75 1506.61 1835.75 1505.61 1859.75C1505.61 1893.04 1512.68 1900.81 1527.82 1917.44M1528.11 1917.75L1527.82 1917.44M1528.11 1917.75C1528.01 1917.65 1527.92 1917.54 1527.82 1917.44M1537.11 1761.75C1546.11 1765.75 1546.61 1780.75 1539.61 1786.75C1531.61 1793.61 1521.61 1791.71 1516.61 1786.75C1511.61 1781.79 1509.61 1767.75 1519.61 1761.75L1519.11 578.75C1515.61 577.25 1513.2 571.75 1513.61 564.75C1514.11 556.25 1519.11 550.75 1528.61 550.75C1538.11 550.75 1543.11 557.25 1543.11 564.75C1543.11 572.25 1542.61 573.75 1537.11 578.75V1761.75Z" stroke="#AC763D" stroke-linejoin="round"/>
<path d="M1028.5 51.6829C1025.07 60.9018 1001.98 63.6265 999.678 51.6829L576.503 51.6829C576.503 57.5004 571.005 60.0009 562.503 60.0005C554 60.0001 548.23 53.903 548.003 43.1654C547.775 32.4278 554 26.0004 562.503 26.0004C568 26.0004 576.503 28.0004 576.503 34.1468L999.678 34.1468C1004 25.5008 1021.75 25.1442 1027 34.1468C1030.51 40.1528 1029.5 49.0008 1028.5 51.6829Z" fill="#AC763D" stroke="#AC763D" stroke-linejoin="round"/>
<path d="M449.237 87L1123.65 87C1127.96 87 1128.27 81 1123.65 81L449.237 81C444.921 81 444.921 87 449.237 87Z" fill="#AC763D" stroke="#AC763D" stroke-linejoin="round"/>
</svg>
